<svg id="Layer_1" data-name="Layer 1" xmlns="http://www.w3.org/2000/svg" viewBox="0 0 837.53625 641.11574">
  <defs>
    <style>
      .cls-1 {
        fill: none;
        stroke: #000;
        stroke-miterlimit: 10;
        stroke-width: 2px;
      }
    </style>
  </defs>
  <g>
    <polyline class="cls-1" points="412.536 640.788 551.968 230.536 694.082 640.788"/>
    <polyline class="cls-1" points="554.65 640.788 694.082 230.536 836.196 640.788"/>
    <line class="cls-1" x1="413.87695" y1="245.28368" x2="834.85487" y2="245.28368"/>
    <line class="cls-1" x1="415.21764" y1="304.27422" x2="836.19556" y2="304.27422"/>
    <line class="cls-1" x1="416.55834" y1="363.26476" x2="837.53625" y2="363.26476"/>
    <line class="cls-1" x1="458.11985" y1="502.69693" x2="787.93058" y2="502.69693"/>
    <line class="cls-1" x1="436.66875" y1="567.05025" x2="809.38168" y2="567.05025"/>
  </g>
  <g>
    <circle class="cls-1" cx="28.12931" cy="28.16536" r="27.12931"/>
    <circle class="cls-1" cx="28.12931" cy="498.40674" r="27.12931"/>
    <path class="cls-1" d="M216.59308,130.75861a27.12933,27.12933,0,0,1-27.12933-27.12934v470.2414a27.1293,27.1293,0,0,1,54.2586,0V103.62927A27.12927,27.12927,0,0,1,216.59308,130.75861Z" transform="translate(-188.46375 -75.46395)"/>
  </g>
  <g>
    <circle class="cls-1" cx="82.8381" cy="82.86641" r="27.12931"/>
    <circle class="cls-1" cx="82.8381" cy="553.10779" r="27.12931"/>
    <path class="cls-1" d="M271.30187,185.45966a27.12932,27.12932,0,0,1-27.12933-27.12933V628.57172a27.1293,27.1293,0,0,1,54.2586,0V158.33033A27.12927,27.12927,0,0,1,271.30187,185.45966Z" transform="translate(-188.46375 -75.46395)"/>
  </g>
  <g>
    <circle class="cls-1" cx="136.99707" cy="28.12931" r="27.12931"/>
    <circle class="cls-1" cx="136.99707" cy="498.37069" r="27.12931"/>
    <path class="cls-1" d="M325.46084,130.72256a27.12933,27.12933,0,0,1-27.12934-27.12934v470.2414a27.12931,27.12931,0,0,1,54.25861,0V103.59322A27.12927,27.12927,0,0,1,325.46084,130.72256Z" transform="translate(-188.46375 -75.46395)"/>
  </g>
  <g>
    <circle class="cls-1" cx="191.70586" cy="82.83036" r="27.12931"/>
    <circle class="cls-1" cx="191.70586" cy="553.07174" r="27.12931"/>
    <path class="cls-1" d="M380.16963,185.42361a27.12933,27.12933,0,0,1-27.12934-27.12933V628.53567a27.12931,27.12931,0,0,1,54.25861,0V158.29428A27.12927,27.12927,0,0,1,380.16963,185.42361Z" transform="translate(-188.46375 -75.46395)"/>
  </g>
</svg>
