<svg id="Layer_1" data-name="Layer 1" xmlns="http://www.w3.org/2000/svg" viewBox="0 0 218.25862 581.5">
  <defs>
    <style>
      .cls-1 {
        fill: none;
        stroke: #000;
        stroke-miterlimit: 10;
        stroke-width: 2px;
      }
    </style>
  </defs>
  <g>
    <circle class="cls-1" cx="28.12931" cy="28.12931" r="27.12931"/>
    <circle class="cls-1" cx="28.12931" cy="498.37069" r="27.12931"/>
    <path class="cls-1" d="M28.12933,55.25861A27.12933,27.12933,0,0,1,1,28.12927v470.2414a27.12931,27.12931,0,0,1,54.25861,0V28.12927A27.12928,27.12928,0,0,1,28.12933,55.25861Z"/>
  </g>
  <g>
    <circle class="cls-1" cx="82.8381" cy="82.83036" r="27.12931"/>
    <circle class="cls-1" cx="82.8381" cy="553.07174" r="27.12931"/>
    <path class="cls-1" d="M82.83812,109.95966A27.12932,27.12932,0,0,1,55.70879,82.83033V553.07172a27.12931,27.12931,0,0,1,54.25861,0V82.83033A27.12927,27.12927,0,0,1,82.83812,109.95966Z"/>
  </g>
  <g>
    <circle class="cls-1" cx="136.99707" cy="28.09326" r="27.12931"/>
    <circle class="cls-1" cx="136.99707" cy="498.33464" r="27.12931"/>
    <path class="cls-1" d="M136.99709,55.22256a27.12933,27.12933,0,0,1-27.12933-27.12934v470.2414a27.1293,27.1293,0,0,1,54.2586,0V28.09322A27.12927,27.12927,0,0,1,136.99709,55.22256Z"/>
  </g>
  <g>
    <circle class="cls-1" cx="191.70586" cy="82.79431" r="27.12931"/>
    <circle class="cls-1" cx="191.70586" cy="553.03569" r="27.12931"/>
    <path class="cls-1" d="M191.70588,109.92361a27.12932,27.12932,0,0,1-27.12933-27.12933V553.03567a27.1293,27.1293,0,0,1,54.2586,0V82.79428A27.12927,27.12927,0,0,1,191.70588,109.92361Z"/>
  </g>
</svg>
