<svg id="Layer_1" data-name="Layer 1" xmlns="http://www.w3.org/2000/svg" viewBox="0 0 374 287">
  <defs>
    <style>
      .cls-1, .cls-3, .cls-4, .cls-5, .cls-6 {
        fill: none;
        stroke-miterlimit: 10;
      }

      .cls-1 {
        stroke: #004fee;
      }

      .cls-2 {
        fill: #004fee;
      }

      .cls-3, .cls-4, .cls-5, .cls-6 {
        stroke: #000;
      }

      .cls-4 {
        stroke-dasharray: 12.57143 12.57143;
      }

      .cls-5 {
        stroke-dasharray: 11.88235 11.88235;
      }

      .cls-6 {
        stroke-dasharray: 12.53333 12.53333;
      }
    </style>
  </defs>
  <circle class="cls-1" cx="337" cy="37.5" r="36.5"/>
  <circle class="cls-1" cx="237" cy="143.5" r="36.5"/>
  <circle class="cls-2" cx="237" cy="250.5" r="36.5"/>
  <circle class="cls-1" cx="337" cy="143.5" r="36.5"/>
  <circle class="cls-1" cx="237" cy="37.5" r="36.5"/>
  <circle class="cls-2" cx="337" cy="250.5" r="36.5"/>
  <circle class="cls-2" cx="137" cy="36.5" r="36.5"/>
  <circle class="cls-1" cx="37" cy="142.5" r="36.5"/>
  <circle class="cls-1" cx="37" cy="249.5" r="36.5"/>
  <circle class="cls-1" cx="137" cy="142.5" r="36.5"/>
  <circle class="cls-2" cx="37" cy="36.5" r="36.5"/>
  <circle class="cls-2" cx="137" cy="249.5" r="36.5"/>
  <g>
    <line class="cls-3" x1="37.5" y1="36" x2="43.5" y2="36"/>
    <line class="cls-4" x1="56.07141" y1="36" x2="125.21429" y2="36"/>
    <polyline class="cls-3" points="131.5 36 137.5 36 137.5 42"/>
    <line class="cls-5" x1="137.5" y1="53.88235" x2="137.5" y2="238.05884"/>
    <polyline class="cls-3" points="137.5 244 137.5 250 143.5 250"/>
    <line class="cls-6" x1="156.03333" y1="250" x2="325.23334" y2="250"/>
    <line class="cls-3" x1="331.5" y1="250" x2="337.5" y2="250"/>
  </g>
  <circle cx="37" cy="36.5" r="6"/>
  <circle cx="137.5" cy="37" r="6"/>
  <circle cx="137.5" cy="250" r="6"/>
  <circle cx="237.5" cy="250" r="6"/>
  <circle cx="337.5" cy="250" r="6"/>
</svg>
