<svg id="Layer_1" data-name="Layer 1" xmlns="http://www.w3.org/2000/svg" viewBox="0 0 455.25862 210.5">
  <defs>
    <style>
      .cls-1 {
        fill: none;
        stroke: #000;
        stroke-miterlimit: 10;
        stroke-width: 2px;
      }
    </style>
  </defs>
  <g>
    <circle class="cls-1" cx="407.63792" cy="45.58627" r="18.74787"/>
    <circle class="cls-1" cx="82.6749" cy="45.58627" r="18.74787"/>
    <path class="cls-1" d="M388.89007,45.58628A18.74787,18.74787,0,0,1,407.638,26.8384H82.67491a18.74786,18.74786,0,0,1,0,37.49572H407.638A18.74784,18.74784,0,0,1,388.89007,45.58628Z"/>
  </g>
  <g>
    <circle class="cls-1" cx="369.83644" cy="83.39309" r="18.74787"/>
    <circle class="cls-1" cx="44.87342" cy="83.39309" r="18.74787"/>
    <path class="cls-1" d="M351.08859,83.39311a18.74787,18.74787,0,0,1,18.74788-18.74789H44.87344a18.74787,18.74787,0,0,1,0,37.49573h324.963A18.74784,18.74784,0,0,1,351.08859,83.39311Z"/>
  </g>
  <g>
    <circle class="cls-1" cx="407.66284" cy="120.81996" r="18.74787"/>
    <circle class="cls-1" cx="82.69981" cy="120.81996" r="18.74787"/>
    <path class="cls-1" d="M388.915,120.82a18.74788,18.74788,0,0,1,18.74788-18.74788H82.69983a18.74786,18.74786,0,0,1,0,37.49572h324.963A18.74784,18.74784,0,0,1,388.915,120.82Z"/>
  </g>
  <g>
    <circle class="cls-1" cx="369.86136" cy="158.62679" r="18.74787"/>
    <circle class="cls-1" cx="44.89833" cy="158.62679" r="18.74787"/>
    <path class="cls-1" d="M351.1135,158.6268a18.74788,18.74788,0,0,1,18.74788-18.74788H44.89835a18.74786,18.74786,0,0,1,0,37.49572h324.963A18.74784,18.74784,0,0,1,351.1135,158.6268Z"/>
  </g>
</svg>
